<svg width="20" height="20" viewBox="0 0 20 20" fill="none" xmlns="http://www.w3.org/2000/svg">
<g filter="url(#filter0_d_105_118)">
<path d="M13.28 7.78L16.5 4.56V7.25C16.5 7.44891 16.579 7.63968 16.7197 7.78033C16.8603 7.92098 17.0511 8 17.25 8C17.4489 8 17.6397 7.92098 17.7803 7.78033C17.921 7.63968 18 7.44891 18 7.25V2.75C18 2.55109 17.921 2.36032 17.7803 2.21967C17.6397 2.07902 17.4489 2 17.25 2H12.75C12.5511 2 12.3603 2.07902 12.2197 2.21967C12.079 2.36032 12 2.55109 12 2.75C12 2.94891 12.079 3.13968 12.2197 3.28033C12.3603 3.42098 12.5511 3.5 12.75 3.5H15.44L12.22 6.72C12.0875 6.86217 12.0154 7.05022 12.0188 7.24452C12.0223 7.43882 12.101 7.62421 12.2384 7.76162C12.3758 7.89903 12.5612 7.97775 12.7555 7.98117C12.9498 7.9846 13.1378 7.91248 13.28 7.78ZM2.00001 17.25V12.75C2.00001 12.5511 2.07902 12.3603 2.21968 12.2197C2.36033 12.079 2.55109 12 2.75001 12C2.94892 12 3.13968 12.079 3.28034 12.2197C3.42099 12.3603 3.50001 12.5511 3.50001 12.75V15.44L6.72001 12.22C6.86218 12.0875 7.05023 12.0154 7.24453 12.0188C7.43883 12.0223 7.62422 12.101 7.76163 12.2384C7.89904 12.3758 7.97775 12.5612 7.98118 12.7555C7.98461 12.9498 7.91249 13.1378 7.78001 13.28L4.56001 16.5H7.25001C7.44892 16.5 7.63968 16.579 7.78034 16.7197C7.92099 16.8603 8.00001 17.0511 8.00001 17.25C8.00001 17.4489 7.92099 17.6397 7.78034 17.7803C7.63968 17.921 7.44892 18 7.25001 18H2.75001C2.6514 18.0004 2.5537 17.9813 2.46252 17.9437C2.37135 17.9062 2.28851 17.8509 2.21879 17.7812C2.14907 17.7115 2.09384 17.6287 2.05629 17.5375C2.01874 17.4463 1.99961 17.3486 2.00001 17.25ZM12.22 13.28L15.44 16.5H12.75C12.5511 16.5 12.3603 16.579 12.2197 16.7197C12.079 16.8603 12 17.0511 12 17.25C12 17.4489 12.079 17.6397 12.2197 17.7803C12.3603 17.921 12.5511 18 12.75 18H17.25C17.3486 18.0004 17.4463 17.9813 17.5375 17.9437C17.6287 17.9062 17.7115 17.8509 17.7812 17.7812C17.8509 17.7115 17.9062 17.6287 17.9437 17.5375C17.9813 17.4463 18.0004 17.3486 18 17.25V12.75C18 12.5511 17.921 12.3603 17.7803 12.2197C17.6397 12.079 17.4489 12 17.25 12C17.0511 12 16.8603 12.079 16.7197 12.2197C16.579 12.3603 16.5 12.5511 16.5 12.75V15.44L13.28 12.22C13.2113 12.1463 13.1285 12.0872 13.0365 12.0462C12.9445 12.0052 12.8452 11.9832 12.7445 11.9814C12.6438 11.9796 12.5438 11.9982 12.4504 12.0359C12.357 12.0736 12.2722 12.1297 12.201 12.201C12.1297 12.2722 12.0736 12.357 12.0359 12.4504C11.9982 12.5438 11.9796 12.6438 11.9814 12.7445C11.9832 12.8452 12.0052 12.9445 12.0462 13.0365C12.0872 13.1285 12.1463 13.2113 12.22 13.28ZM3.50001 4.56L6.72001 7.78C6.86218 7.91248 7.05023 7.9846 7.24453 7.98117C7.43883 7.97775 7.62422 7.89903 7.76163 7.76162C7.89904 7.62421 7.97775 7.43882 7.98118 7.24452C7.98461 7.05022 7.91249 6.86217 7.78001 6.72L4.56001 3.5H7.25001C7.44892 3.5 7.63968 3.42098 7.78034 3.28033C7.92099 3.13968 8.00001 2.94891 8.00001 2.75C8.00001 2.55109 7.92099 2.36032 7.78034 2.21967C7.63968 2.07902 7.44892 2 7.25001 2H2.75001C2.55109 2 2.36033 2.07902 2.21968 2.21967C2.07902 2.36032 2.00001 2.55109 2.00001 2.75V7.25C2.00001 7.44891 2.07902 7.63968 2.21968 7.78033C2.36033 7.92098 2.55109 8 2.75001 8C2.94892 8 3.13968 7.92098 3.28034 7.78033C3.42099 7.63968 3.50001 7.44891 3.50001 7.25V4.56Z" fill="white"/>
</g>
<defs>
<filter id="filter0_d_105_118" x="1" y="2" width="18" height="18" filterUnits="userSpaceOnUse" color-interpolation-filters="sRGB">
<feFlood flood-opacity="0" result="BackgroundImageFix"/>
<feColorMatrix in="SourceAlpha" type="matrix" values="0 0 0 0 0 0 0 0 0 0 0 0 0 0 0 0 0 0 127 0" result="hardAlpha"/>
<feOffset dy="1"/>
<feGaussianBlur stdDeviation="0.5"/>
<feComposite in2="hardAlpha" operator="out"/>
<feColorMatrix type="matrix" values="0 0 0 0 0 0 0 0 0 0 0 0 0 0 0 0 0 0 0.06 0"/>
<feBlend mode="normal" in2="BackgroundImageFix" result="effect1_dropShadow_105_118"/>
<feBlend mode="normal" in="SourceGraphic" in2="effect1_dropShadow_105_118" result="shape"/>
</filter>
</defs>
</svg>
