<svg width="20" height="20" viewBox="0 0 20 20" fill="none" xmlns="http://www.w3.org/2000/svg">
<path d="M6.78074 15.7988C8.91424 16.7304 11.3788 16.7112 13.4996 15.7478C15.6012 14.797 16.9387 12.7999 16.9387 10.6114V10.0052C16.9387 9.35264 16.8358 8.72271 16.6443 8.12877C17.6191 7.84922 18.3333 6.94913 18.3333 5.88324C18.3333 4.5944 17.2889 3.54795 16.0025 3.54795C15.1478 3.54795 14.4 4.00978 13.9942 4.69769C12.8653 3.95316 11.4885 3.51603 10.0033 3.51603C8.51637 3.51603 7.13807 3.95512 6.00839 4.70199C5.60322 4.0117 4.85405 3.54795 3.99764 3.54795C2.71118 3.54795 1.66677 4.5944 1.66677 5.88324C1.66677 6.9515 2.38422 7.85322 3.36229 8.13063C3.17076 8.72427 3.06779 9.35362 3.06779 10.0052V10.5475C3.06779 12.7616 4.44343 14.7843 6.59603 15.7159L6.78074 15.7988Z" fill="white"/>
</svg>
