<svg width="17" height="17" viewBox="0 0 17 17" fill="none" xmlns="http://www.w3.org/2000/svg">
<g clip-path="url(#clip0_1826_17)">
<path d="M15.5962 8.7052C15.1372 6.93129 14.5011 5.20801 13.6975 3.56131C13.58 3.30833 13.3926 3.09419 13.1575 2.94414C12.9224 2.79407 12.6492 2.71432 12.3703 2.71429H4.62818C4.34924 2.71432 4.07611 2.79407 3.84098 2.94414C3.60584 3.09419 3.41848 3.30833 3.30096 3.56131C2.49736 5.20801 1.86127 6.93129 1.40231 8.7052C1.13133 10.0582 2.13228 11.4112 3.00418 12.2997C3.13319 12.4308 3.29077 12.5302 3.46458 12.5902C3.63839 12.6501 3.82373 12.6691 4.00608 12.6455C4.18844 12.622 4.36287 12.5565 4.51572 12.4543C4.66858 12.3521 4.79571 12.216 4.88717 12.0564L5.71668 10.6029C5.80539 10.4471 5.93384 10.3175 6.08896 10.2274C6.24408 10.1374 6.4203 10.0902 6.59965 10.0905H10.3988C10.5782 10.0902 10.7544 10.1374 10.9095 10.2274C11.0647 10.3175 11.193 10.4471 11.2818 10.6029L12.1113 12.0564C12.2027 12.216 12.3298 12.3521 12.4828 12.4543C12.6356 12.5565 12.81 12.622 12.9923 12.6455C13.1747 12.6691 13.3601 12.6501 13.5339 12.5902C13.7077 12.5302 13.8653 12.4308 13.9943 12.2997C14.8671 11.4112 15.8727 10.0582 15.5962 8.7052Z" stroke="white" stroke-width="1.3" stroke-linecap="round" stroke-linejoin="round"/>
<path d="M11.0339 6.51621C10.843 6.51621 10.6882 6.36147 10.6882 6.17058C10.6882 5.97969 10.843 5.82495 11.0339 5.82495" stroke="white" stroke-width="1.3"/>
<path d="M11.0339 6.51621C11.2248 6.51621 11.3795 6.36147 11.3795 6.17058C11.3795 5.97969 11.2248 5.82495 11.0339 5.82495" stroke="white" stroke-width="1.3"/>
<path d="M5.96465 6.51621C5.77376 6.51621 5.61902 6.36147 5.61902 6.17058C5.61902 5.97969 5.77376 5.82495 5.96465 5.82495" stroke="white" stroke-width="1.3"/>
<path d="M5.96463 6.51621C6.15552 6.51621 6.31026 6.36147 6.31026 6.17058C6.31026 5.97969 6.15552 5.82495 5.96463 5.82495" stroke="white" stroke-width="1.3"/>
</g>
<defs>
<clipPath id="clip0_1826_17">
<rect width="16" height="16" fill="white" transform="translate(0.5 1)"/>
</clipPath>
</defs>
</svg>
