<svg width="16" height="16" viewBox="0 0 16 16" fill="none" xmlns="http://www.w3.org/2000/svg">
<path d="M14.0015 8.67858V10.6905C14.0015 11.4269 13.4045 12.0238 12.6681 12.0238L10.2506 12.0238C10.0953 12.0238 9.94489 12.0781 9.8253 12.1771L7.99862 13.6905L6.19615 12.1796C6.07612 12.079 5.9245 12.0238 5.76788 12.0238H3.3348C2.59842 12.0238 2.00146 11.4269 2.00146 10.6905V4.00002C2.00146 3.26364 2.59842 2.66668 3.3348 2.66668L8.00147 2.66668M14.6667 4C14.6667 5.10457 13.7712 6 12.6667 6C11.5621 6 10.6667 5.10457 10.6667 4C10.6667 2.89543 11.5621 2 12.6667 2C13.7712 2 14.6667 2.89543 14.6667 4Z" stroke="white" stroke-width="1.33333" stroke-linecap="round"/>
</svg>
