<svg width="8" height="8" viewBox="0 0 8 8" fill="none" xmlns="http://www.w3.org/2000/svg">
    <path fill-rule="evenodd" clip-rule="evenodd"
        d="M7.31164 0.532186C7.43575 0.61494 7.52191 0.743605 7.55117 0.88988C7.58043 1.03616 7.55038 1.18806 7.46764 1.31219L3.71764 6.93719C3.67145 7.00637 3.6105 7.06445 3.53916 7.10724C3.46783 7.15003 3.38789 7.17646 3.30511 7.18464C3.22233 7.19282 3.13877 7.18253 3.06044 7.15453C2.98211 7.12652 2.91097 7.08149 2.85214 7.02269L0.602141 4.77269C0.502781 4.66605 0.448688 4.52502 0.45126 4.37929C0.453831 4.23357 0.512865 4.09453 0.615924 3.99147C0.718984 3.88841 0.858023 3.82938 1.00375 3.82681C1.14947 3.82423 1.29051 3.87833 1.39714 3.97769L3.16189 5.74244L6.53164 0.687436C6.61451 0.563444 6.74323 0.477437 6.8895 0.448324C7.03577 0.419211 7.18761 0.449376 7.31164 0.532186Z"
        fill="white" />
</svg>