<svg width="12" height="12" viewBox="0 0 12 12" fill="none" xmlns="http://www.w3.org/2000/svg">
<path fill-rule="evenodd" clip-rule="evenodd" d="M9.31164 2.53219C9.43575 2.61494 9.52191 2.7436 9.55117 2.88988C9.58043 3.03616 9.55038 3.18806 9.46764 3.31219L5.71764 8.93719C5.67145 9.00637 5.6105 9.06445 5.53916 9.10724C5.46783 9.15003 5.38789 9.17646 5.30511 9.18464C5.22233 9.19282 5.13877 9.18253 5.06044 9.15453C4.98211 9.12652 4.91097 9.08149 4.85214 9.02269L2.60214 6.77269C2.50278 6.66605 2.44869 6.52502 2.45126 6.37929C2.45383 6.23357 2.51286 6.09453 2.61592 5.99147C2.71898 5.88841 2.85802 5.82938 3.00375 5.82681C3.14947 5.82423 3.29051 5.87833 3.39714 5.97769L5.16189 7.74244L8.53164 2.68744C8.61451 2.56344 8.74323 2.47744 8.8895 2.44832C9.03577 2.41921 9.18761 2.44938 9.31164 2.53219Z" fill="black"/>
</svg>
