<svg width="20" height="20" viewBox="0 0 20 20" fill="none" xmlns="http://www.w3.org/2000/svg">
    <path
        d="M18.75 4.375V15.625C18.75 15.7908 18.6842 15.9497 18.5669 16.0669C18.4497 16.1842 18.2908 16.25 18.125 16.25H12.5C12.0035 16.25 11.5273 16.4469 11.1758 16.7975C10.8243 17.1481 10.6262 17.6238 10.625 18.1203C10.6275 18.2479 10.5904 18.3732 10.5187 18.4788C10.4471 18.5844 10.3445 18.6653 10.225 18.7102C10.1302 18.7468 10.0278 18.7597 9.92684 18.7478C9.82587 18.7359 9.72933 18.6995 9.64559 18.6419C9.56185 18.5842 9.49344 18.507 9.44629 18.4169C9.39913 18.3269 9.37466 18.2267 9.375 18.125C9.375 17.6277 9.17746 17.1508 8.82583 16.7992C8.47419 16.4475 7.99728 16.25 7.5 16.25H1.875C1.70924 16.25 1.55027 16.1842 1.43306 16.0669C1.31585 15.9497 1.25 15.7908 1.25 15.625V4.375C1.25 4.20924 1.31585 4.05027 1.43306 3.93306C1.55027 3.81585 1.70924 3.75 1.875 3.75H6.875C7.53804 3.75 8.17393 4.01339 8.64277 4.48223C9.11161 4.95107 9.375 5.58696 9.375 6.25V13.1039C9.37283 13.2652 9.43181 13.4213 9.54008 13.5409C9.64835 13.6605 9.79788 13.7346 9.95859 13.7484C10.0441 13.7541 10.1298 13.7422 10.2105 13.7133C10.2912 13.6844 10.3651 13.6393 10.4276 13.5807C10.49 13.5221 10.5398 13.4512 10.5738 13.3726C10.6078 13.2939 10.6252 13.2091 10.625 13.1234V6.25C10.625 5.58696 10.8884 4.95107 11.3572 4.48223C11.8261 4.01339 12.462 3.75 13.125 3.75H18.125C18.2908 3.75 18.4497 3.81585 18.5669 3.93306C18.6842 4.05027 18.75 4.20924 18.75 4.375Z"
        fill="#E6E6E6" />
</svg>