<svg width="13" height="12" viewBox="0 0 13 12" fill="none" xmlns="http://www.w3.org/2000/svg">
    <path
        d="M10.2656 4.76531L6.51561 8.51531C6.48078 8.55018 6.43942 8.57784 6.3939 8.59671C6.34837 8.61558 6.29958 8.62529 6.2503 8.62529C6.20101 8.62529 6.15222 8.61558 6.10669 8.59671C6.06117 8.57784 6.01981 8.55018 5.98498 8.51531L2.23498 4.76531C2.18248 4.71287 2.14672 4.64602 2.13222 4.57324C2.11773 4.50046 2.12515 4.42501 2.15356 4.35645C2.18197 4.28789 2.23008 4.22931 2.2918 4.1881C2.35352 4.1469 2.42608 4.12494 2.5003 4.125H10.0003C10.0745 4.12494 10.1471 4.1469 10.2088 4.1881C10.2705 4.22931 10.3186 4.28789 10.347 4.35645C10.3754 4.42501 10.3829 4.50046 10.3684 4.57324C10.3539 4.64602 10.3181 4.71287 10.2656 4.76531Z"
        fill="currentColor" />
</svg>