<svg width="16" height="16" viewBox="0 0 16 16" fill="none" xmlns="http://www.w3.org/2000/svg">
    <path
        d="M14.25 6.5C14.25 6.69891 14.171 6.88968 14.0303 7.03033C13.8897 7.17098 13.6989 7.25 13.5 7.25C13.3011 7.25 13.1103 7.17098 12.9697 7.03033C12.829 6.88968 12.75 6.69891 12.75 6.5V4.3125L9.03063 8.03187C8.88973 8.17277 8.69863 8.25193 8.49938 8.25193C8.30012 8.25193 8.10902 8.17277 7.96812 8.03187C7.82723 7.89098 7.74807 7.69988 7.74807 7.50063C7.74807 7.30137 7.82723 7.11027 7.96812 6.96938L11.6875 3.25H9.5C9.30109 3.25 9.11032 3.17098 8.96967 3.03033C8.82902 2.88968 8.75 2.69891 8.75 2.5C8.75 2.30109 8.82902 2.11032 8.96967 1.96967C9.11032 1.82902 9.30109 1.75 9.5 1.75H13.5C13.6989 1.75 13.8897 1.82902 14.0303 1.96967C14.171 2.11032 14.25 2.30109 14.25 2.5V6.5ZM11.5 8C11.3011 8 11.1103 8.07902 10.9697 8.21967C10.829 8.36032 10.75 8.55109 10.75 8.75V12.75H3.25V5.25H7.25C7.44891 5.25 7.63968 5.17098 7.78033 5.03033C7.92098 4.88968 8 4.69891 8 4.5C8 4.30109 7.92098 4.11032 7.78033 3.96967C7.63968 3.82902 7.44891 3.75 7.25 3.75H3C2.66848 3.75 2.35054 3.8817 2.11612 4.11612C1.8817 4.35054 1.75 4.66848 1.75 5V13C1.75 13.3315 1.8817 13.6495 2.11612 13.8839C2.35054 14.1183 2.66848 14.25 3 14.25H11C11.3315 14.25 11.6495 14.1183 11.8839 13.8839C12.1183 13.6495 12.25 13.3315 12.25 13V8.75C12.25 8.55109 12.171 8.36032 12.0303 8.21967C11.8897 8.07902 11.6989 8 11.5 8Z"
        fill="white" fill-opacity="0.6" />
</svg>