<svg width="257" height="257" viewBox="0 0 257 257" fill="none" xmlns="http://www.w3.org/2000/svg">
<path d="M21.7124 128.573C21.7124 118.331 23.3427 108.464 26.3679 99.1796C15.0462 93.6712 7.23389 82.0374 7.23389 68.59C7.23389 49.8349 22.4321 34.6069 41.1529 34.6069C51.4999 34.6069 60.7712 39.2588 66.995 46.587C84.4446 35.0132 105.71 28.2334 128.547 28.2334C151.362 28.2334 172.611 34.9873 190.053 46.5314C196.276 39.2353 205.527 34.6069 215.847 34.6069C234.568 34.6069 249.766 49.8349 249.766 68.59C249.766 82.002 241.995 93.6099 230.722 99.1359C233.749 108.429 235.38 118.31 235.38 128.573V137.394C235.38 171.72 214.412 202.796 181.863 217.522C149.48 232.232 111.87 232.524 79.2878 218.297L79.2603 218.285C45.9464 203.851 21.7124 171.188 21.7124 136.465V128.573Z" fill="white"/>
</svg>
