<svg width="256" height="256" viewBox="0 0 256 256" fill="none" xmlns="http://www.w3.org/2000/svg">
<path d="M21.2124 128.073C21.2124 117.831 22.8427 107.964 25.8679 98.6796C14.5462 93.1712 6.73389 81.5374 6.73389 68.09C6.73389 49.3349 21.9321 34.1069 40.6529 34.1069C50.9999 34.1069 60.2712 38.7588 66.495 46.087C83.9446 34.5132 105.21 27.7334 128.047 27.7334C150.862 27.7334 172.111 34.4873 189.553 46.0314C195.776 38.7353 205.027 34.1069 215.347 34.1069C234.068 34.1069 249.266 49.3349 249.266 68.09C249.266 81.502 241.495 93.1099 230.222 98.6359C233.249 107.929 234.88 117.81 234.88 128.073V136.894C234.88 171.22 213.912 202.296 181.363 217.022C148.98 231.732 111.37 232.024 78.7878 217.797L78.7603 217.785C45.4464 203.351 21.2124 170.688 21.2124 135.965V128.073Z" fill="#1F1F1F"/>
</svg>
