<svg width="20" height="20" viewBox="0 0 20 20" fill="none" xmlns="http://www.w3.org/2000/svg">
    <path
        d="M17.5 9.37503V16.875C17.5 17.0408 17.4342 17.1998 17.3169 17.317C17.1997 17.4342 17.0408 17.5 16.875 17.5H12.5C12.3342 17.5 12.1753 17.4342 12.0581 17.317C11.9408 17.1998 11.875 17.0408 11.875 16.875V12.8125C11.875 12.7297 11.8421 12.6502 11.7835 12.5916C11.7249 12.533 11.6454 12.5 11.5625 12.5H8.4375C8.35462 12.5 8.27513 12.533 8.21653 12.5916C8.15792 12.6502 8.125 12.7297 8.125 12.8125V16.875C8.125 17.0408 8.05915 17.1998 7.94194 17.317C7.82473 17.4342 7.66576 17.5 7.5 17.5H3.125C2.95924 17.5 2.80027 17.4342 2.68306 17.317C2.56585 17.1998 2.5 17.0408 2.5 16.875V9.37503C2.50015 9.04357 2.63195 8.72574 2.86641 8.49144L9.11641 2.24144C9.3508 2.00719 9.66862 1.87561 10 1.87561C10.3314 1.87561 10.6492 2.00719 10.8836 2.24144L17.1336 8.49144C17.368 8.72574 17.4998 9.04357 17.5 9.37503Z"
        fill="white" />
</svg>