<svg width="20" height="20" viewBox="0 0 20 20" fill="none" xmlns="http://www.w3.org/2000/svg">
<g filter="url(#filter0_d_93_105)">
<path fill-rule="evenodd" clip-rule="evenodd" d="M1 5.25C1 4.65326 1.23705 4.08097 1.65901 3.65901C2.08097 3.23705 2.65326 3 3.25 3H16.75C17.0455 3 17.3381 3.0582 17.611 3.17127C17.884 3.28434 18.1321 3.45008 18.341 3.65901C18.5499 3.86794 18.7157 4.11598 18.8287 4.38896C18.9418 4.66194 19 4.95453 19 5.25V14.75C19 15.0455 18.9418 15.3381 18.8287 15.611C18.7157 15.884 18.5499 16.1321 18.341 16.341C18.1321 16.5499 17.884 16.7157 17.611 16.8287C17.3381 16.9418 17.0455 17 16.75 17H3.25C2.65326 17 2.08097 16.7629 1.65901 16.341C1.23705 15.919 1 15.3467 1 14.75V5.25ZM2.5 11.06V14.75C2.5 15.164 2.836 15.5 3.25 15.5H16.75C16.9489 15.5 17.1397 15.421 17.2803 15.2803C17.421 15.1397 17.5 14.9489 17.5 14.75V12.06L15.28 9.841C15.1394 9.70055 14.9488 9.62166 14.75 9.62166C14.5512 9.62166 14.3606 9.70055 14.22 9.841L12.31 11.75L12.78 12.22C12.8537 12.2887 12.9128 12.3715 12.9538 12.4635C12.9948 12.5555 13.0168 12.6548 13.0186 12.7555C13.0204 12.8562 13.0018 12.9562 12.9641 13.0496C12.9264 13.143 12.8703 13.2278 12.799 13.299C12.7278 13.3703 12.643 13.4264 12.5496 13.4641C12.4562 13.5018 12.3562 13.5204 12.2555 13.5186C12.1548 13.5168 12.0555 13.4948 11.9635 13.4538C11.8715 13.4128 11.7887 13.3537 11.72 13.28L6.53 8.091C6.38937 7.95055 6.19875 7.87166 6 7.87166C5.80125 7.87166 5.61063 7.95055 5.47 8.091L2.5 11.06ZM12 7C12 7.26522 11.8946 7.51957 11.7071 7.70711C11.5196 7.89464 11.2652 8 11 8C10.7348 8 10.4804 7.89464 10.2929 7.70711C10.1054 7.51957 10 7.26522 10 7C10 6.73478 10.1054 6.48043 10.2929 6.29289C10.4804 6.10536 10.7348 6 11 6C11.2652 6 11.5196 6.10536 11.7071 6.29289C11.8946 6.48043 12 6.73478 12 7Z" fill="white"/>
</g>
<defs>
<filter id="filter0_d_93_105" x="0" y="3" width="20" height="16" filterUnits="userSpaceOnUse" color-interpolation-filters="sRGB">
<feFlood flood-opacity="0" result="BackgroundImageFix"/>
<feColorMatrix in="SourceAlpha" type="matrix" values="0 0 0 0 0 0 0 0 0 0 0 0 0 0 0 0 0 0 127 0" result="hardAlpha"/>
<feOffset dy="1"/>
<feGaussianBlur stdDeviation="0.5"/>
<feComposite in2="hardAlpha" operator="out"/>
<feColorMatrix type="matrix" values="0 0 0 0 0 0 0 0 0 0 0 0 0 0 0 0 0 0 0.06 0"/>
<feBlend mode="normal" in2="BackgroundImageFix" result="effect1_dropShadow_93_105"/>
<feBlend mode="normal" in="SourceGraphic" in2="effect1_dropShadow_93_105" result="shape"/>
</filter>
</defs>
</svg>
