<svg width="599" height="495" viewBox="0 0 599 495" fill="none" xmlns="http://www.w3.org/2000/svg">
<path d="M36.2185 247.682C36.2185 222.437 40.237 198.116 47.6936 175.233C19.7874 161.655 0.53125 132.98 0.53125 99.8341C0.53125 53.6056 37.9926 16.071 84.1362 16.071C109.64 16.071 132.492 27.5372 147.833 45.6001C190.844 17.0724 243.26 0.361328 299.549 0.361328C355.786 0.361328 408.16 17.0086 451.151 45.463C466.491 27.4792 489.292 16.071 514.731 16.071C560.874 16.071 598.336 53.6056 598.336 99.8341C598.336 132.892 579.181 161.504 551.394 175.125C558.855 198.03 562.876 222.386 562.876 247.682V269.425C562.876 354.033 511.193 430.632 430.966 466.928C351.146 503.185 258.443 503.906 178.133 468.838L178.065 468.808C95.9515 433.23 36.2185 352.723 36.2185 267.135V247.682Z" fill="white"/>
</svg>
