<?xml version="1.0" encoding="UTF-8" standalone="no"?>
<svg width="126px" height="105px" viewBox="0 0 126 105" version="1.1" xmlns="http://www.w3.org/2000/svg" xmlns:xlink="http://www.w3.org/1999/xlink">
    <!-- Generator: Sketch 3.8.3 (29802) - http://www.bohemiancoding.com/sketch -->
    <title>panda-face</title>
    <desc>Created with Sketch.</desc>
    <defs></defs>
    <g id="Page-1" stroke="none" stroke-width="1" fill="none" fill-rule="evenodd">
        <g id="panda-face" transform="translate(0.000000, 4.000000)">
            <path d="M103.160077,35.3830531 L108.006231,35.3830531 C117.698538,35.3830531 125.567162,27.5093656 125.567162,17.811449 C125.567162,8.11404271 117.698538,0.240355208 108.006231,0.240355208 C98.3139231,0.240355208 90.4447895,8.11404271 90.4447895,17.811449 L90.4447895,22.6604073 C90.3968381,29.6699594 96.1066275,35.3830531 103.160077,35.3830531" id="Fill-1" fill="#000000"></path>
            <path d="M22.4073401,35.3830531 L17.5611862,35.3830531 C7.86887854,35.3830531 0.000255060729,27.5093656 0.000255060729,17.811449 C0.000255060729,8.11404271 7.86887854,0.240355208 17.5611862,0.240355208 C27.2534939,0.240355208 35.1226275,8.11404271 35.1226275,17.811449 L35.1226275,22.6604073 C35.1705789,29.6699594 29.4607895,35.3830531 22.4073401,35.3830531" id="Fill-3" fill="#000000"></path>
            <path d="M89.1495401,92.0339437 L89.1495401,92.0339437 C73.1715158,99.2833917 54.6030947,99.4273292 38.5291676,92.4177771 L37.1375563,91.7940479 C20.9197749,84.7844958 10.5556372,69.5654021 10.5556372,52.9064229 L10.5556372,48.8256417 C10.5556372,21.8924854 33.9707223,0.000204166667 62.8078883,0.000204166667 C91.6445441,0.000204166667 115.059629,21.8445062 115.059629,48.8256417 L115.059629,53.386725 C115.059629,69.8537875 104.9832,84.8804542 89.1495401,92.0339437" id="Fill-5" fill="#FFFFFF"></path>
            <path d="M89.1495401,92.0339437 L89.1495401,92.0339437 C73.1715158,99.2833917 54.6030947,99.4273292 38.5291676,92.4177771 L37.1375563,91.7940479 C20.9197749,84.7844958 10.5556372,69.5654021 10.5556372,52.9064229 L10.5556372,48.8256417 C10.5556372,21.8924854 33.9707223,0.000204166667 62.8078883,0.000204166667 C91.6445441,0.000204166667 115.059629,21.8445062 115.059629,48.8256417 L115.059629,53.386725 C115.059629,69.8537875 104.9832,84.8804542 89.1495401,92.0339437 L89.1495401,92.0339437 Z" id="Stroke-7" stroke="#000000" stroke-width="6.10559967"></path>
            <path d="M25.9190162,33.155901 C31.0396154,24.9284948 40.7548785,22.3468073 47.619583,27.3892135 C54.4837773,32.4316198 55.8973239,43.1891615 50.7772348,51.4165677 C45.6566356,59.6434635 35.9408623,62.2256615 29.076668,57.1832552 C22.2124737,52.1403385 20.798417,41.3833073 25.9190162,33.155901" id="Fill-9" fill="#000000"></path>
            <path d="M87.7920559,85.5694656 L87.7879749,85.5715073 C72.592987,92.4651948 55.1157158,92.5973927 39.8651247,85.9476844 L38.4480073,85.3122156 C23.4591085,78.8340073 13.7739425,64.705674 13.7739425,49.3181427 L13.7739425,53.3407365 C13.7739425,68.7282677 23.4591085,82.856601 38.4480073,89.3348094 L39.8651247,89.9702781 C55.1157158,96.6199865 72.592987,96.4877885 87.7879749,89.594101 L87.7920559,89.5920594 C102.401424,82.9918615 111.841222,68.9492781 111.841222,53.8174656 L111.841222,49.7948719 C111.841222,64.9266844 102.401424,78.9692677 87.7920559,85.5694656" id="Fill-11" fill="#E6E6E6"></path>
            <path d="M69.7707911,65.8759573 L65.1286858,68.7853323 C63.7003457,69.6530406 61.9149206,69.6530406 60.5375927,68.7853323 L55.8954874,65.8759573 C54.6201838,65.0592906 53.8550016,63.6811656 53.8550016,62.2009573 C53.8550016,59.801999 55.7934632,57.8624156 58.191034,57.8624156 L67.4752445,57.8624156 C69.8728154,57.8624156 71.8112769,59.801999 71.8112769,62.2009573 C71.8112769,63.6811656 71.0460947,65.1103323 69.7707911,65.8759573" id="Fill-13" fill="#000000"></path>
            <path d="M75.7392632,72.6644479 C68.5975628,79.8102813 57.0178057,79.8102813 49.8761053,72.6644479" id="Stroke-15" stroke="#010202" stroke-width="5.08799973" stroke-linecap="round"></path>
            <path d="M62.8331393,78.0238229 L62.8331393,67.4581979" id="Stroke-17" stroke="#010202" stroke-width="4.07039978" stroke-linecap="round"></path>
            <path d="M36.1303215,34.9021896 C37.9478842,31.9820958 41.3963053,31.0653875 43.8326453,32.8554188 C46.2689854,34.6449396 46.7704348,38.4633667 44.9533822,41.3834604 C43.1358194,44.3035542 39.6873984,45.2197521 37.2510583,43.4302313 C34.8147182,41.6407104 34.3127587,37.8222833 36.1303215,34.9021896" id="Fill-19" fill="#FFFFFF"></path>
            <path d="M99.7472623,33.155901 C94.6266632,24.9284948 84.9114,22.3468073 78.0466955,27.3892135 C71.1825012,32.4316198 69.7689547,43.1891615 74.8890437,51.4165677 C80.0096429,59.6434635 89.7254162,62.2256615 96.5896105,57.1832552 C103.453805,52.1403385 104.867862,41.3833073 99.7472623,33.155901" id="Fill-21" fill="#000000"></path>
            <path d="M89.5360081,34.9021896 C87.7184453,31.9820958 84.2700243,31.0653875 81.8336842,32.8554188 C79.3973441,34.6449396 78.8958947,38.4633667 80.7129474,41.3834604 C82.5305101,44.3035542 85.9789312,45.2197521 88.4152713,43.4302313 C90.8516113,41.6407104 91.3535709,37.8222833 89.5360081,34.9021896" id="Fill-23" fill="#FFFFFF"></path>
        </g>
    </g>
</svg>