<svg width="16" height="16" viewBox="0 0 16 16" fill="none" xmlns="http://www.w3.org/2000/svg">
    <path
        d="M8 8C8 8.19891 7.92098 8.38968 7.78033 8.53033C7.63968 8.67098 7.44891 8.75 7.25 8.75H3C2.80109 8.75 2.61032 8.67098 2.46967 8.53033C2.32902 8.38968 2.25 8.19891 2.25 8C2.25 7.80109 2.32902 7.61032 2.46967 7.46967C2.61032 7.32902 2.80109 7.25 3 7.25H7.25C7.44891 7.25 7.63968 7.32902 7.78033 7.46967C7.92098 7.61032 8 7.80109 8 8ZM3 4.75H11.25C11.4489 4.75 11.6397 4.67098 11.7803 4.53033C11.921 4.38968 12 4.19891 12 4C12 3.80109 11.921 3.61032 11.7803 3.46967C11.6397 3.32902 11.4489 3.25 11.25 3.25H3C2.80109 3.25 2.61032 3.32902 2.46967 3.46967C2.32902 3.61032 2.25 3.80109 2.25 4C2.25 4.19891 2.32902 4.38968 2.46967 4.53033C2.61032 4.67098 2.80109 4.75 3 4.75ZM6.25 11.25H3C2.80109 11.25 2.61032 11.329 2.46967 11.4697C2.32902 11.6103 2.25 11.8011 2.25 12C2.25 12.1989 2.32902 12.3897 2.46967 12.5303C2.61032 12.671 2.80109 12.75 3 12.75H6.25C6.44891 12.75 6.63968 12.671 6.78033 12.5303C6.92098 12.3897 7 12.1989 7 12C7 11.8011 6.92098 11.6103 6.78033 11.4697C6.63968 11.329 6.44891 11.25 6.25 11.25ZM14.5306 9.96937C14.4609 9.89945 14.3782 9.84398 14.287 9.80612C14.1958 9.76827 14.0981 9.74878 13.9994 9.74878C13.9007 9.74878 13.8029 9.76827 13.7118 9.80612C13.6206 9.84398 13.5378 9.89945 13.4681 9.96937L12.25 11.1875V7C12.25 6.80109 12.171 6.61032 12.0303 6.46967C11.8897 6.32902 11.6989 6.25 11.5 6.25C11.3011 6.25 11.1103 6.32902 10.9697 6.46967C10.829 6.61032 10.75 6.80109 10.75 7V11.1875L9.53063 9.9675C9.38973 9.8266 9.19863 9.74745 8.99938 9.74745C8.80012 9.74745 8.60902 9.8266 8.46813 9.9675C8.32723 10.1084 8.24807 10.2995 8.24807 10.4987C8.24807 10.698 8.32723 10.8891 8.46813 11.03L10.9681 13.53C11.0378 13.5999 11.1206 13.6554 11.2118 13.6933C11.3029 13.7311 11.4007 13.7506 11.4994 13.7506C11.5981 13.7506 11.6958 13.7311 11.787 13.6933C11.8782 13.6554 11.9609 13.5999 12.0306 13.53L14.5306 11.03C14.6713 10.8893 14.7503 10.6986 14.7503 10.4997C14.7503 10.3008 14.6713 10.11 14.5306 9.96937Z"
        fill="#E6E6E6" fill-opacity="0.6" />
</svg>